PathFileType	4	(X/Y/Z)	/home/abdul/Desktop/myosuite/custom_workspace/IK/output/S11_12_2.trc
DataRate	CameraRate	NumFrames	NumMarkers	Units	OrigDataRate	OrigDataStartFrame	OrigNumFrames
200.0	200.0	67	3	mm	200.0	188	1500
Frame#	Time	V_Shoulder			V_Elbow			V_Wrist		
		X1	Y1	Z1	X2	Y2	Z2	X3	Y3	Z3

188	0.935	-98.53055837160785	567.4013133019663	282.72783817760893	-267.43281506924274	389.940195853439	46.023825820051066	-131.6809299577659	157.88170683664825	75.46639289065605
189	0.94	-98.39596124128572	567.0410701060206	282.7559391766543	-267.26270971931365	389.72934749529014	45.96990237535539	-131.14628291579294	157.59102944637553	75.31266341745746
190	0.945	-98.26191589728347	566.6818950674079	282.784449077046	-267.0970185869006	389.5222740377852	45.917252698801796	-130.62453065532566	157.30569460794135	75.16065018864532
191	0.95	-98.12846526906361	566.3239065457168	282.8133484792894	-266.9357578675902	389.31898225340785	45.86590305886484	-130.1156109771855	157.0257701392254	75.0105267488803
192	0.955	-97.99565313363446	565.9672185674048	282.8426149540719	-266.77893740816563	389.11947463988747	45.815873156039565	-129.61944717138948	156.75131594359763	74.86244736415269
193	0.96	-97.86352403906294	565.6119406897465	282.8722231252616	-266.62656081055366	388.92374947884264	45.76717621816614	-129.135948576842	156.48238387844114	74.7165467903304
194	0.965	-97.73212322531913	565.2581778779177	282.90214475983163	-266.4786255480292	388.731800900169	45.71981911394354	-128.66501116177636	156.21901763774972	74.57294010930976
195	0.97	-97.60149654264781	564.9060303954134	282.93234886450324	-266.3351230932633	388.5436189520741	45.673802484061945	-128.20651812348314	155.96125264923245	74.43172263334739
196	0.975	-97.4716903676685	564.5555937079648	282.96280178888395	-266.1960390577763	388.3591896766552	45.62912088933317	-127.76034050582246	155.70911598635072	74.29296987793039
197	0.98	-97.34275151741404	564.2069584010768	282.9934673348589	-266.0613533423326	388.1784951909168	45.58576297514943	-127.32633783297493	155.46262629570657	74.1567376033164
198	0.985	-97.21472716152404	563.8602101112688	283.0243068719762	-265.93104029779215	388.0015137731169	45.54371165155474	-126.90435875784527	155.2217937401903	74.02306192464401
199	0.99	-97.08766473281605	563.515429471062	283.05527945855243	-265.8050688959099	387.8282199543306	45.50294428816892	-126.49424172349195	154.98661995828502	73.89195949027994
200	0.995	-96.96161183646264	563.172692067718	283.0863419682057	-265.6834029095527	387.6585846151114	45.4634329231627	-126.0958156359172	154.75709803990995	73.76342772783238
201	1.0	-96.8366161580085	562.832068415693	283.11744922150996	-265.5660011017832	387.4925750871304	45.425144485443674	-125.70890054651406	154.53321251916861	73.63744515702133
202	1.005	-96.71272537046599	562.4936239427411	283.14855412244805	-265.45281742324084	387.33015525966596	45.388041029176854	-125.33330834243046	154.31493938434872	73.5139717683588
203	1.01	-96.58998704073139	562.1574189895568	283.1796077993272	-265.3438012172312	387.17128569081115	45.35207997973073	-124.96884344307658	154.10224610549767	73.39294946635282
204	1.015	-96.46844853556809	561.8235088228158	283.21055974980555	-265.238897431916	387.01592372326195	45.31721439011018	-124.61530350097107	153.89509167987447	73.27430257571477
205	1.02	-96.34815692740524	561.4919436614381	283.2413579896673	-265.13804683898417	386.86402360454406	45.283393206911214	-124.2724801050924	153.69342669555033	73.157938408816
206	1.025	-96.22915890020288	561.1627687158654	283.27194920497	-265.041186258167	386.71553661152655	45.25056154480975	-123.94015948487757	153.4971934134017	73.04374789241271
207	1.03	-96.11150065563561	560.8360242401133	283.30227890717714	-264.9482487869472	386.57041117906874	45.218660968577595	-123.61812321298868	153.30632586770628	72.93160625143577
208	1.035	-95.99522781984813	560.5117455963276	283.3322915908805	-264.8591640348028	386.4285930326364	45.187629781603206	-123.3061489049511	153.12074998551878	72.82137374742716
209	1.04	-95.88038535103543	560.1899633315464	283.361930893703	-264.773858361315	386.2900253247175	45.157403319883116	-123.00401091375481	152.94038372496584	72.71289646899811
210	1.045	-95.76701744810022	559.8707032663433	283.39113975796994	-264.69225511746333	386.1546487748606	45.127914250442416	-122.71148101750248	152.7651372325605	72.60600717148694
211	1.05	-95.65516746063838	559.5539865950007	283.41986059372647	-264.6142748894241	386.0224018131519	45.09909287313845	-122.42832909818654	152.59491301959636	72.50052616280722
212	1.055	-95.54487780050137	559.2398299968374	283.448035442675	-264.53983574418567	385.89322072693653	45.070867424802366	-122.15432380968022	152.42960615763792	72.39626223230252
213	1.06	-95.4361898551813	558.9282457582957	283.47560614259964	-264.4688534762914	385.7670398105864	45.043164384676814	-121.88923323303749	152.26910449307917	72.2930136192605
214	1.065	-95.32914390326084	558.6192419053672	283.502514491845	-264.4012418550219	385.6437915181034	45.01590878011645	-121.63282551721248	152.1132888806971	72.19056901759093
215	1.07	-95.22377903216609	558.3128223459244	283.5287024134116	-264.33691287133115	385.52340661834216	44.989024491529385	-121.38486950333154	151.96203343607934	72.08870861303646
216	1.075	-95.12013305845487	558.0089870215021	283.55411211823315	-264.2757769838545	385.4058143526287	44.9624345555538	-121.14513533067995	151.81520580675644	71.98720514916619
217	1.08	-95.01824245086732	557.7077320680606	283.5786862671973	-264.21774336331526	385.2909425945391	44.936061465482894	-120.91339502260178	151.67266746181997	71.88582501829742
218	1.085	-94.91814225635913	557.4090499852466	283.6023681314811	-264.16272013466505	385.17871801159987	44.90982746797494	-120.68942305055518	151.53427399975817	71.78432937340358
219	1.09	-94.81986602933002	557.1129298136569	283.62510175076824	-264.1106146163029	385.0690662286581	44.88365485511141	-120.47299687461616	151.39987547418914	71.68247525699485
220	1.095	-94.72344576425257	556.8193573195991	283.64683208892757	-264.06133355573525	384.96191199266644	44.857466250896216	-120.26389745878208	151.26931673712238	71.58001674290496
221	1.1	-94.6289118318972	556.5283151868343	283.66750518673365	-264.01478336105174	384.8571793386178	44.8311848913223	-120.06190975949283	151.14243779932588	71.47670608688017
222	1.105	-94.5362929193402	556.23978321478	283.6870683112231	-263.9708703276113	384.7547917563574	44.804734897167826	-119.86682318586122	151.01907420732655	71.37229488184722
223	1.11	-94.44561597393128	555.9537385226436	283.7054701012865	-263.9295008593534	384.6546723579953	44.77804153872339	-119.67843203018538	150.89905743651985	71.26653521373558
224	1.115	-94.35690615138675	555.6701557589555	283.72266070911	-263.8905816841716	384.5567440456333	44.751031491693155	-119.49653586740502	150.7822152998136	71.15918081374433
225	1.12	-94.27018676816256	555.3890073159654	283.7385919370902	-263.8540200628098	384.4609296791176	44.72363308355658	-119.32093992226	150.66837237117988	71.04998820297644
226	1.125	-94.18547925824977	555.1102635483633	283.75321736986194	-263.81972399077085	384.36715224352145	44.69577652972389	-119.15145540301305	150.55735042344034	70.93871782541285
227	1.13	-94.1028031345229	554.8338929957902	283.766492501095	-263.78760239275107	384.27533501605797	44.6673941588662	-118.98789980070956	150.44896887955898	70.82513516526376
228	1.135	-94.02217595475764	554.559862608599	283.77837485472725	-263.7575653091489	384.18540173212114	44.63842062685102	-118.83009715306471	150.34304527667	70.70901184481644
229	1.14	-93.94361329242167	554.2881379763336	283.7888241003261	-263.72952407422406	384.09727675014824	44.60879311876486	-118.6778782721918	150.23939574201916	70.59012669899546
230	1.145	-93.86712871232817	554.0186835583919	283.79780216228403	-263.7033914855185	384.0108852149965	44.57845153855715	-118.53108093551651	150.1378354799512	70.46826682296224
231	1.15	-93.79273375122652	553.7514629163494	283.8052733225766	-263.6790819641843	383.926153219526	44.54733868589283	-118.38955003935597	150.03817926903133	70.34322858920659
232	1.155	-93.72043790339107	553.4864389474186	283.81120431683127	-263.65651170589945	383.8430079640784	44.51540041985488	-118.25313771478346	149.9402419683434	70.21481863072087
233	1.16	-93.65024861125217	553.2235741185312	283.81556442347846	-263.6355988220906	383.7613779135457	44.48258580919237	-118.1217034055436	149.84383903196675	70.0828547869979
234	1.165	-93.58217126109975	552.9628307005337	283.8183255457781	-263.61626347121677	383.6811929517216	44.44884726886474	-117.99511390793198	149.74878703059161	69.94716700975619
235	1.17	-93.51620918387289	552.7041710019959	283.81946228654016	-263.59842797990984	383.6023845326338	44.41414068268689	-117.87324337270607	149.65490417919412	69.80759822546807
236	1.175	-93.45236366103347	552.447557602142	283.8189520153798	-263.5820169538045	383.5248858285578	44.37842551193511	-117.75597326924742	149.56201086965496	69.66400515194846
237	1.18	-93.39063393550605	552.1929535824202	283.8167749283764	-263.56695737793166	383.4486318744183	44.34166488982714	-117.64319231235294	149.46993020717036	69.51625906645265
238	1.185	-93.33101722764889	551.9403227562404	283.8129141000277	-263.5531787065875	383.3735597082914	44.30382570184387	-117.53479635218909	149.37848854927032	69.36424652292982
239	1.19	-93.27350875620704	551.689629896417	283.8073555274179	-263.54061294263215	383.2996085077256	44.2648786519128	-117.43068822810189	149.2875160462287	69.20787001628412
240	1.195	-93.21810176417905	551.4408409598658	283.8000881665463	-263.5291947062106	383.2267197216094	44.22479831452544	-117.3307775871309	149.19684718162057	69.0470485917055
241	1.2	-93.16478754951629	551.1939233091172	283.79110396078687	-263.51886129292933	383.1548371973222	44.18356317291172	-117.234980668232	149.10632131175575	68.88171839734882
242	1.205	-93.11355550055441	550.9488459302174	283.78039786147866	-263.5095527215599	383.08390730291353	44.14115564344459	-117.14322005336619	149.0157832026945	68.7118331788587
243	1.21	-93.06439313606359	550.7055796466017	283.7679678406711	-263.5012117713816	383.01387904406795	44.09756208649609	-117.05542438676197	148.92508356353062	68.53736471446108
244	1.215	-93.01728614978587	550.4640973285377	283.7538148960775	-263.493784009312	382.94470417562275	44.052772804013856	-116.9715280638045	148.8340795746079	68.35830318956661
245	1.22	-92.97221845931477	550.2243740977498	283.73794304831546	-263.4872178070111	382.87633730741925	44.00678202413215	-116.89147089114624	148.74263540932304	68.17465751005828
246	1.225	-92.92917225915568	549.9863875268443	283.7203593305381	-263.48146434818227	382.8087360042793	43.959587873176055	-116.81519771976912	148.6506227481546	67.98645555366204
247	1.23	-92.88812807779182	549.750117833174	283.701073770587	-263.47647762632585	382.7418608799135	43.91119233545954	-116.74265805285691	148.55792128354994	67.79374435902656
248	1.235	-92.84906483856616	549.5155480667894	283.6800993658239	-263.47221443323724	382.67567568458	43.8616012013187	-116.67380563045933	148.46441921429738	67.59659025236421
249	1.24	-92.81195992417558	549.2826642921368	283.6574520508204	-263.46863433857175	382.61014738632844	43.81082400386034	-116.60859799304248	148.37001372800776	67.39507891172984
250	1.245	-92.77678924456109	549.0514557631824	283.6331506581107	-263.46569966082836	382.54524624567597	43.758873944942785	-116.54699602612664	148.27461147033364	67.18931536923657
251	1.25	-92.74352730796494	548.8219150916447	283.60721687223497	-263.46337543013544	382.4809458835791	43.70576781094041	-116.48896348830812	148.17812899955842	66.97942395172672
252	1.255	-92.71214729491386	548.5940384080403	283.5796751773233	-263.4616293432461	382.4172233425783	43.65152587887619	-116.43446652504855	148.08049322519855	66.76554816063255
253	1.26	-92.68262113487636	548.3678255152583	283.5505527984906	-263.4604317111772	382.35405914100886	43.596171813536955	-116.38347317069173	147.98164182927405	66.5478504919727
254	1.265	-92.65491958533232	548.143280034384	283.51987963733455	-263.4597553999473	382.2914373201845	43.53973255621402	-116.33595284123368	147.88152366892123	66.32651219763738
